<svg version="1.1" xmlns="http://www.w3.org/2000/svg" xmlns:xlink="http://www.w3.org/1999/xlink" viewBox="0 0 172 172"><g fill="none" fill-rule="nonzero" stroke="none" stroke-width="1" stroke-linecap="butt" stroke-linejoin="miter" stroke-miterlimit="10" stroke-dasharray="" stroke-dashoffset="0" font-family="none" font-weight="none" font-size="none" text-anchor="none" style="mix-blend-mode: normal"><path d="M0,172v-172h172v172z" fill="none"></path><g fill="#0874f9"><path d="M13.115,6.88c-1.63937,0.30906 -2.82187,1.76031 -2.795,3.44v10.32c0.01344,0.88688 0.34938,1.73344 0.9675,2.365l54.0725,57.405v60.63c0.02688,1.19594 0.68531,2.29781 1.72,2.9025l34.4,20.64c1.04813,0.60469 2.35156,0.61813 3.41313,0.01344c1.04812,-0.59125 1.72,-1.70656 1.74687,-2.91594v-81.27l53.535,-56.8675c0.04031,-0.04031 0.06719,-0.06719 0.1075,-0.1075l0.43,-0.43c0.16125,-0.16125 0.30906,-0.34937 0.43,-0.5375c0.08063,-0.06719 0.14781,-0.13437 0.215,-0.215c0.20156,-0.44344 0.30906,-0.91375 0.3225,-1.3975c0,-0.06719 0,-0.14781 0,-0.215c0.01344,-0.17469 0.01344,-0.36281 0,-0.5375v-9.7825c0,-1.89469 -1.54531,-3.44 -3.44,-3.44h-144.48c-0.1075,0 -0.215,0 -0.3225,0c-0.1075,0 -0.215,0 -0.3225,0zM17.2,13.76h137.6v5.59l-53.105,56.33h-31.39l-53.105,-56.33zM72.24,82.56h27.52v73.1l-27.52,-16.4475z"></path></g></g></svg>