<svg version="1.1" xmlns="http://www.w3.org/2000/svg" xmlns:xlink="http://www.w3.org/1999/xlink" viewBox="0 0 172 172"><g fill="none" fill-rule="nonzero" stroke="none" stroke-width="1" stroke-linecap="butt" stroke-linejoin="miter" stroke-miterlimit="10" stroke-dasharray="" stroke-dashoffset="0" font-family="none" font-weight="none" font-size="none" text-anchor="none" style="mix-blend-mode: normal"><path d="M0,172v-172h172v172z" fill="none"></path><g fill="#323C47"><path d="M26.875,21.5c-8.86035,0 -16.125,7.26465 -16.125,16.125v96.75c0,8.86035 7.26465,16.125 16.125,16.125h118.25c8.86035,0 16.125,-7.26465 16.125,-16.125v-96.75c0,-8.86035 -7.26465,-16.125 -16.125,-16.125zM26.875,32.25h118.25c3.02344,0 5.375,2.35156 5.375,5.375v78.10547l-37.66699,-39.7666l-20.99609,23.6416l-32.37598,-34.13965l-37.96094,42.74804v-70.58886c0,-3.02344 2.35156,-5.375 5.375,-5.375zM118.25,43c-5.9209,0 -10.75,4.8291 -10.75,10.75c0,5.9209 4.8291,10.75 10.75,10.75c5.9209,0 10.75,-4.8291 10.75,-10.75c0,-5.9209 -4.8291,-10.75 -10.75,-10.75zM59.7129,81.33886l55.38769,58.41114h-88.22558c-3.02344,0 -5.375,-2.35156 -5.375,-5.375v-9.95215zM113.04297,91.87891l37.45703,39.47266v3.02344c0,3.02344 -2.35156,5.375 -5.375,5.375h-15.24317l-30.6123,-32.33398z"></path></g></g></svg>