<svg version="1.1" xmlns="http://www.w3.org/2000/svg" xmlns:xlink="http://www.w3.org/1999/xlink" viewBox="0 0 172 172"><g fill="none" fill-rule="nonzero" stroke="none" stroke-width="1" stroke-linecap="butt" stroke-linejoin="miter" stroke-miterlimit="10" stroke-dasharray="" stroke-dashoffset="0" font-family="none" font-weight="none" font-size="none" text-anchor="none" style="mix-blend-mode: normal"><path d="M0,172v-172h172v172z" fill="none"></path><g fill="#0874F9"><path d="M57.34733,28.65267c-15.83117,0 -28.66667,12.8355 -28.66667,28.66667v57.33333c0,15.83117 12.8355,28.66667 28.66667,28.66667h57.33333c15.83117,0 28.66667,-12.8355 28.66667,-28.66667v-57.33333c0,-15.83117 -12.8355,-28.66667 -28.66667,-28.66667zM57.34733,42.986h57.33333c7.90483,0 14.33333,6.4285 14.33333,14.33333v57.33333c0,7.90483 -6.4285,14.33333 -14.33333,14.33333h-57.33333c-7.90483,0 -14.33333,-6.4285 -14.33333,-14.33333v-57.33333c0,-7.90483 6.4285,-14.33333 14.33333,-14.33333z"></path></g></g></svg>