<svg version="1.1" xmlns="http://www.w3.org/2000/svg" xmlns:xlink="http://www.w3.org/1999/xlink" viewBox="0 0 172 172"><g fill="none" fill-rule="nonzero" stroke="none" stroke-width="1" stroke-linecap="butt" stroke-linejoin="miter" stroke-miterlimit="10" stroke-dasharray="" stroke-dashoffset="0" font-family="none" font-weight="none" font-size="none" text-anchor="none" style="mix-blend-mode: normal"><path d="M0,172v-172h172v172z" fill="none"></path><g fill="#ffffff"><path d="M87.10754,21.45013c-16.09141,-0.28555 -32.28149,5.49258 -45.04712,17.38477c-1.6125,1.47812 -1.74845,4.0302 -0.27032,5.6427c0.40313,0.40312 0.9401,0.80782 1.4776,0.9422c0.26875,0.13438 0.5396,0.2677 0.80835,0.2677h0.13385c0.40313,0 0.80625,0.13437 1.34375,0h14.9151c1.47812,0 2.82135,-0.80625 3.49322,-2.01562l6.98907,-12.09375c9.94375,-2.82188 20.425,-2.6875 30.23438,0l6.98645,12.09375c0.67188,1.20938 2.0151,2.01563 3.49322,2.01563h13.84168l0.40155,0.40417c7.25625,7.25625 12.3625,16.12343 14.78125,25.9328l-6.98645,11.9599c-0.67187,1.20937 -0.67187,2.82187 0,4.03125l6.98645,11.9599c-2.41875,9.675 -7.525,18.67655 -14.78125,25.9328l-0.40155,0.40417h-13.84168c-1.47812,0 -2.82135,0.80625 -3.49322,2.01563l-6.98645,11.9599c-9.94375,2.82188 -20.4271,2.82188 -30.37085,0l-6.98645,-11.9599c-0.67187,-1.20938 -2.0151,-2.01562 -3.49322,-2.01562h-13.84168l-0.40155,-0.40417c-7.25625,-7.25625 -12.22812,-16.25833 -14.78125,-25.79895l6.8526,-11.82605c0.80625,-1.47812 0.80625,-3.08853 0,-4.56665l-7.39062,-12.76562c0,-0.13438 -0.13385,-0.13595 -0.13385,-0.27032c-0.5375,-0.94062 -1.47813,-1.74688 -2.6875,-2.01562c-2.15,-0.5375 -4.3021,0.8073 -4.8396,3.09168c-4.97188,21.76875 1.61302,44.07447 17.3349,59.93072c12.63125,12.63125 29.02553,18.8125 45.55365,18.8125c16.52813,0 33.05678,-6.31563 45.55365,-18.8125c25.12812,-25.12812 25.12812,-66.11303 0,-91.24115c-12.3625,-12.3625 -28.3547,-18.71067 -44.44611,-18.99621zM76.7276,65.84375c-1.47813,0 -2.82135,0.80625 -3.49322,2.01563l-9.2724,16.125c-0.67187,1.20937 -0.67187,2.82187 0,4.03125l9.2724,16.125c0.67188,1.20938 2.0151,2.01563 3.49322,2.01563h18.67865c1.47812,0 2.82135,-0.80625 3.49322,-2.01562l9.2724,-16.125c0.67188,-1.20938 0.67188,-2.82188 0,-4.03125l-9.2724,-16.125c-0.80625,-1.20937 -2.14895,-2.01562 -3.62707,-2.01562z"></path></g></g></svg>